<svg width="780" height="411" viewBox="0 0 780 411" fill="none" xmlns="http://www.w3.org/2000/svg">
<rect y="0.644043" width="780" height="410" rx="8" fill="#0B152D"/>
<rect x="54" y="204.644" width="50" height="70" rx="4" fill="#F3F2EF"/>
<path d="M68.1363 240.074C68.412 240.074 68.6876 240.074 68.9633 240.034L70.4599 243.265H76.2491L73.5317 238.479C75.2645 237.083 76.2885 234.729 76.2885 231.379V219.374C76.2885 213.511 73.0591 210.679 68.1757 210.679C63.2528 210.679 60.0234 213.511 60.0234 219.374V231.379C60.0234 237.402 63.1347 240.074 68.1363 240.074ZM65.2613 230.98V219.613C65.2613 216.701 66.0884 215.266 68.1363 215.266C70.2236 215.266 71.0506 216.622 71.0506 219.613V230.98C71.0506 233.892 70.2236 235.288 68.1757 235.288C66.0884 235.288 65.2613 233.892 65.2613 230.98Z" fill="#0B152D"/>
<path d="M92.5162 253.625C92.7184 253.072 92.8195 252.468 92.8195 251.814C92.8195 248.746 90.3425 246.282 87.2588 246.282C84.1752 246.282 81.6981 248.746 81.6981 251.814C81.6981 252.468 81.7992 253.122 82.052 253.726C82.0014 253.726 81.9509 253.726 81.8498 253.726C78.7661 253.726 76.2891 256.19 76.2891 259.258C76.2891 262.327 78.7661 264.791 81.8498 264.791C83.7707 264.791 85.5906 263.785 86.5511 262.276V263.685C86.5511 263.986 86.5005 264.338 86.45 264.64C86.0961 266.451 84.8323 267.004 83.2652 267.155V268.513H91.1008V267.155C91.1008 267.155 88.5226 267.256 87.916 264.59C87.8149 264.238 87.8149 263.886 87.8149 263.534V262.226C88.8259 263.685 90.4941 264.64 92.4151 264.64C95.4988 264.64 97.9758 262.176 97.9758 259.108C97.9758 256.14 95.5493 253.675 92.5162 253.625ZM87.1072 257.347V257.397C87.1072 257.397 87.0566 257.397 87.1072 257.347Z" fill="#0B152D"/>
<rect x="108" y="204.644" width="50" height="70" rx="4" fill="#F3F2EF"/>
<path d="M114.023 229.31V233.156C114.023 237.683 116.449 240.248 122.017 240.248C127.743 240.248 130.288 237.323 130.288 233.196V230.071C130.288 227.346 129.175 225.704 127.067 224.942C129.095 224.101 129.931 222.418 129.931 219.974V217.169C129.931 213.163 127.306 210.679 122.096 210.679C117.125 210.679 114.262 213.243 114.262 217.53V220.815H119.432V217.891C119.432 216.248 120.187 215.326 122.057 215.326C124.005 215.326 124.681 216.168 124.681 217.891V220.335C124.681 222.098 123.767 222.979 121.977 222.979H119.949V227.106H121.937C124.005 227.106 124.92 227.867 124.92 229.67V232.515C124.92 234.398 124.164 235.36 122.057 235.36C120.108 235.36 119.273 234.518 119.273 232.715V229.31H114.023Z" fill="#E20D33"/>
<path d="M152.578 252.807C152.578 249.21 149.986 246.282 146.825 246.282C144.336 246.282 142.211 248.08 141.434 250.649C140.656 248.08 138.531 246.282 136.043 246.282C132.881 246.282 130.289 249.21 130.289 252.807C130.289 254.142 130.652 255.376 131.222 256.403C131.274 256.506 131.378 256.66 131.429 256.763C134.021 260.719 141.485 267.912 141.485 267.912C141.485 267.912 150.66 258.818 151.801 256.146C152.319 255.17 152.578 254.04 152.578 252.807Z" fill="#E20D33"/>
<path d="M28 314.144C28 298.956 40.3122 286.644 55.5 286.644H156.5C171.688 286.644 184 298.956 184 314.144V314.144C184 329.332 171.688 341.644 156.5 341.644H55.5C40.3122 341.644 28 329.332 28 314.144V314.144Z" fill="white" fill-opacity="0.08"/>
<circle cx="55.5" cy="314.144" r="19.5" fill="#009A95"/>
<mask id="mask0" style="mask-type:alpha" maskUnits="userSpaceOnUse" x="36" y="294" width="39" height="40">
<circle cx="55.5" cy="314.144" r="19.5" fill="#C4C4C4"/>
</mask>
<g mask="url(#mask0)">
<ellipse cx="55.4997" cy="328.964" rx="14.82" ry="8.58001" fill="#49F2D3"/>
</g>
<ellipse cx="55.5005" cy="311.219" rx="7.02" ry="7.02" fill="#49F2D3"/>
<path d="M84.8811 321.144H87.5161V316.229H90.3002C93.6596 316.229 95.4635 314.212 95.4635 311.414C95.4635 308.637 93.6809 306.599 90.3357 306.599H84.8811V321.144ZM87.5161 314.063V308.8H89.9309C91.9053 308.8 92.7789 309.866 92.7789 311.414C92.7789 312.962 91.9053 314.063 89.9451 314.063H87.5161ZM100.41 306.599H97.8386V321.144H100.41V306.599ZM106.393 321.364C108.104 321.364 109.127 320.562 109.596 319.645H109.681V321.144H112.153V313.843C112.153 310.959 109.802 310.093 107.721 310.093C105.427 310.093 103.665 311.116 103.097 313.104L105.498 313.445C105.753 312.699 106.478 312.06 107.735 312.06C108.928 312.06 109.582 312.671 109.582 313.743V313.786C109.582 314.525 108.807 314.56 106.883 314.766C104.766 314.993 102.742 315.626 102.742 318.083C102.742 320.228 104.312 321.364 106.393 321.364ZM107.06 319.475C105.988 319.475 105.221 318.985 105.221 318.04C105.221 317.053 106.08 316.641 107.231 316.478C107.905 316.386 109.255 316.215 109.589 315.945V317.231C109.589 318.445 108.609 319.475 107.06 319.475ZM116.145 325.235C118.148 325.235 119.306 324.205 119.924 322.465L124.306 310.249L121.557 310.235L119.036 318.474H118.922L116.408 310.235H113.681L117.637 321.371L117.417 321.961C116.941 323.204 116.188 323.289 115.066 322.962L114.469 324.965C114.817 325.107 115.442 325.235 116.145 325.235ZM130.749 321.357C133.291 321.357 135.038 320.114 135.493 318.218L133.092 317.948C132.744 318.871 131.892 319.354 130.784 319.354C129.122 319.354 128.021 318.261 128 316.393H135.599V315.604C135.599 311.776 133.298 310.093 130.614 310.093C127.489 310.093 125.45 312.387 125.45 315.753C125.45 319.177 127.46 321.357 130.749 321.357ZM128.007 314.66C128.085 313.268 129.115 312.096 130.649 312.096C132.126 312.096 133.121 313.175 133.135 314.66H128.007ZM137.975 321.144H140.546V314.731C140.546 313.346 141.59 312.366 143.003 312.366C143.436 312.366 143.976 312.444 144.196 312.515V310.15C143.962 310.107 143.557 310.079 143.273 310.079C142.023 310.079 140.979 310.789 140.581 312.053H140.467V310.235H137.975V321.144ZM157.153 306.599H154.646L151.031 308.921V311.336L154.433 309.163H154.518V321.144H157.153V306.599Z" fill="white"/>
<rect x="216.334" y="232.644" width="50" height="70" rx="4" fill="#F3F2EF"/>
<path d="M230.47 268.074C230.746 268.074 231.022 268.074 231.297 268.034L232.794 271.265H238.583L235.866 266.479C237.599 265.083 238.622 262.729 238.622 259.379V247.374C238.622 241.511 235.393 238.679 230.51 238.679C225.587 238.679 222.357 241.511 222.357 247.374V259.379C222.357 265.402 225.469 268.074 230.47 268.074ZM227.595 258.98V247.613C227.595 244.701 228.422 243.266 230.47 243.266C232.558 243.266 233.385 244.622 233.385 247.613V258.98C233.385 261.892 232.558 263.288 230.51 263.288C228.422 263.288 227.595 261.892 227.595 258.98Z" fill="#E20D33"/>
<path d="M238.623 285.256C238.623 285.256 245.782 279.095 249.214 274.282C249.214 274.282 255.981 282.32 259.707 285.256C259.707 285.256 252.156 292.476 249.214 296.423C249.214 296.471 243.036 289.059 238.623 285.256Z" fill="#E20D33"/>
<rect x="270.334" y="232.644" width="50" height="70" rx="4" fill="#F3F2EF"/>
<path d="M276.357 257.31V261.156C276.357 265.683 278.783 268.248 284.351 268.248C290.077 268.248 292.622 265.323 292.622 261.196V258.071C292.622 255.346 291.509 253.704 289.401 252.942C291.429 252.101 292.265 250.418 292.265 247.974V245.169C292.265 241.163 289.64 238.679 284.43 238.679C279.459 238.679 276.596 241.243 276.596 245.53V248.815H281.766V245.891C281.766 244.248 282.521 243.326 284.391 243.326C286.339 243.326 287.015 244.168 287.015 245.891V248.335C287.015 250.098 286.101 250.979 284.311 250.979H282.283V255.106H284.271C286.339 255.106 287.254 255.867 287.254 257.67V260.515C287.254 262.398 286.498 263.36 284.391 263.36C282.442 263.36 281.607 262.518 281.607 260.715V257.31H276.357Z" fill="#0B152D"/>
<path d="M312.728 283.66C312.728 283.612 312.728 283.612 312.728 283.66C312.63 283.564 312.582 283.467 312.484 283.37C310.087 280.18 303.043 274.282 303.043 274.282C303.043 274.282 294.384 281.63 293.357 283.854C292.868 284.676 292.623 285.594 292.623 286.561C292.623 289.462 295.02 291.831 297.955 291.879C299.863 291.927 301.526 291.009 302.504 289.558V291.637C302.504 291.976 302.456 292.266 302.407 292.604C302.015 294.344 300.792 294.925 299.276 295.07V296.423H307.005V295.118C307.005 295.118 304.51 295.215 303.874 292.604C303.776 292.266 303.776 291.927 303.776 291.589V289.558C304.755 291.009 306.418 291.976 308.326 291.927C311.31 291.879 313.756 289.413 313.707 286.464C313.609 285.449 313.266 284.482 312.728 283.66Z" fill="#0B152D"/>
<rect x="324.334" y="232.644" width="50" height="70" rx="4" fill="#F3F2EF"/>
<path d="M338.47 268.248C343.629 268.248 346.622 265.607 346.622 260.165V257.124C346.622 252.483 344.417 250.322 340.597 250.322C338.037 250.322 336.422 251.643 335.595 253.363V247.641C335.595 244.721 336.462 243.24 338.628 243.24C340.4 243.24 341.148 244.28 341.148 246.241V248.162H346.426V246.161C346.386 241.32 343.866 238.679 338.707 238.679C333.232 238.679 330.357 241.6 330.357 247.521V259.405C330.357 265.367 333.232 268.248 338.47 268.248ZM338.549 254.443C340.636 254.443 341.424 255.724 341.424 257.524V259.885C341.424 262.126 340.518 263.406 338.47 263.406C336.422 263.406 335.595 262.086 335.595 259.205V256.364C336.068 255.204 337.092 254.443 338.549 254.443Z" fill="#E20D33"/>
<path d="M368.912 280.807C368.912 277.21 366.32 274.282 363.158 274.282C360.67 274.282 358.545 276.08 357.768 278.649C356.99 276.08 354.865 274.282 352.377 274.282C349.215 274.282 346.623 277.21 346.623 280.807C346.623 282.142 346.986 283.376 347.556 284.403C347.608 284.506 347.712 284.66 347.763 284.763C350.355 288.719 357.819 295.912 357.819 295.912C357.819 295.912 366.994 286.818 368.135 284.146C368.653 283.17 368.912 282.04 368.912 280.807Z" fill="#E20D33"/>
<path d="M212.334 342.144C212.334 326.956 224.646 314.644 239.834 314.644H350.834C366.022 314.644 378.334 326.956 378.334 342.144V342.144C378.334 357.332 366.022 369.644 350.834 369.644H239.834C224.646 369.644 212.334 357.332 212.334 342.144V342.144Z" fill="white" fill-opacity="0.08"/>
<circle cx="239.834" cy="342.144" r="19.5" fill="#009A95"/>
<mask id="mask1" style="mask-type:alpha" maskUnits="userSpaceOnUse" x="220" y="322" width="40" height="40">
<circle cx="239.834" cy="342.144" r="19.5" fill="#C4C4C4"/>
</mask>
<g mask="url(#mask1)">
<ellipse cx="239.834" cy="356.964" rx="14.82" ry="8.58001" fill="#49F2D3"/>
</g>
<ellipse cx="239.834" cy="339.219" rx="7.02" ry="7.02" fill="#49F2D3"/>
<path d="M276.809 349.144H279.444V344.229H282.228C285.587 344.229 287.391 342.212 287.391 339.414C287.391 336.637 285.609 334.599 282.263 334.599H276.809V349.144ZM279.444 342.063V336.8H281.859C283.833 336.8 284.707 337.866 284.707 339.414C284.707 340.962 283.833 342.063 281.873 342.063H279.444ZM292.337 334.599H289.766V349.144H292.337V334.599ZM298.32 349.364C300.032 349.364 301.055 348.562 301.524 347.645H301.609V349.144H304.08V341.843C304.08 338.959 301.729 338.093 299.649 338.093C297.354 338.093 295.593 339.116 295.025 341.104L297.425 341.445C297.681 340.699 298.406 340.06 299.663 340.06C300.856 340.06 301.509 340.671 301.509 341.743V341.786C301.509 342.525 300.735 342.56 298.81 342.766C296.694 342.993 294.67 343.626 294.67 346.083C294.67 348.228 296.239 349.364 298.32 349.364ZM298.988 347.475C297.916 347.475 297.149 346.985 297.149 346.04C297.149 345.053 298.008 344.641 299.158 344.478C299.833 344.386 301.183 344.215 301.516 343.945V345.231C301.516 346.445 300.536 347.475 298.988 347.475ZM308.073 353.235C310.076 353.235 311.233 352.205 311.851 350.465L316.233 338.249L313.485 338.235L310.964 346.474H310.85L308.336 338.235H305.608L309.564 349.371L309.344 349.961C308.868 351.204 308.116 351.289 306.993 350.962L306.397 352.965C306.745 353.107 307.37 353.235 308.073 353.235ZM322.676 349.357C325.219 349.357 326.966 348.114 327.421 346.218L325.02 345.948C324.672 346.871 323.82 347.354 322.712 347.354C321.05 347.354 319.949 346.261 319.928 344.393H327.527V343.604C327.527 339.776 325.226 338.093 322.541 338.093C319.416 338.093 317.378 340.387 317.378 343.753C317.378 347.177 319.388 349.357 322.676 349.357ZM319.935 342.66C320.013 341.268 321.043 340.096 322.577 340.096C324.054 340.096 325.049 341.175 325.063 342.66H319.935ZM329.902 349.144H332.473V342.731C332.473 341.346 333.517 340.366 334.931 340.366C335.364 340.366 335.904 340.444 336.124 340.515V338.15C335.889 338.107 335.485 338.079 335.201 338.079C333.951 338.079 332.907 338.789 332.509 340.053H332.395V338.235H329.902V349.144ZM343.164 349.144H353.136V346.942H346.801V346.843L349.308 344.293C352.135 341.58 352.916 340.259 352.916 338.618C352.916 336.182 350.934 334.4 348.008 334.4C345.125 334.4 343.079 336.189 343.079 338.952H345.586C345.586 337.468 346.524 336.538 347.973 336.538C349.358 336.538 350.387 337.383 350.387 338.753C350.387 339.968 349.649 340.834 348.214 342.29L343.164 347.241V349.144Z" fill="white"/>
<rect x="405.666" y="232.644" width="50" height="70" rx="4" fill="#F3F2EF"/>
<path d="M411.689 257.31V261.156C411.689 265.683 414.115 268.248 419.683 268.248C425.409 268.248 427.955 265.323 427.955 261.196V258.071C427.955 255.346 426.841 253.704 424.733 252.942C426.761 252.101 427.597 250.418 427.597 247.974V245.169C427.597 241.163 424.972 238.679 419.762 238.679C414.791 238.679 411.928 241.243 411.928 245.53V248.815H417.098V245.891C417.098 244.248 417.853 243.326 419.723 243.326C421.671 243.326 422.347 244.168 422.347 245.891V248.335C422.347 250.098 421.433 250.979 419.643 250.979H417.615V255.106H419.603C421.671 255.106 422.586 255.867 422.586 257.67V260.515C422.586 262.398 421.83 263.36 419.723 263.36C417.774 263.36 416.939 262.518 416.939 260.715V257.31H411.689Z" fill="#E20D33"/>
<path d="M450.244 280.807C450.244 277.21 447.652 274.282 444.491 274.282C442.002 274.282 439.877 276.08 439.1 278.649C438.322 276.08 436.197 274.282 433.709 274.282C430.547 274.282 427.955 277.21 427.955 280.807C427.955 282.142 428.318 283.376 428.888 284.403C428.94 284.506 429.044 284.66 429.095 284.763C431.687 288.719 439.151 295.912 439.151 295.912C439.151 295.912 448.326 286.818 449.467 284.146C449.985 283.17 450.244 282.04 450.244 280.807Z" fill="#E20D33"/>
<rect x="459.666" y="232.644" width="50" height="70" rx="4" fill="#F3F2EF"/>
<path d="M478.347 267.768V262.806H474.667V239.079H470.583C469.976 241.68 468.803 243 466.417 243.36V247.161H469.531V262.806H465.689V267.768H478.347Z" fill="#E20D33"/>
<path d="M480.273 259.445C480.273 265.487 483.468 268.248 488.644 268.248C493.699 268.248 497.015 265.487 497.015 259.445V247.441C497.015 241.56 493.699 238.679 488.644 238.679C483.589 238.679 480.273 241.56 480.273 247.441V259.445ZM488.644 243.24C490.747 243.24 491.596 244.641 491.596 247.641V259.165C491.596 262.086 490.747 263.486 488.644 263.486C486.501 263.486 485.692 262.086 485.692 259.165V247.641C485.692 244.761 486.501 243.24 488.644 243.24Z" fill="#E20D33"/>
<path d="M481.955 285.256C481.955 285.256 489.114 279.095 492.546 274.282C492.546 274.282 499.313 282.32 503.039 285.256C503.039 285.256 495.488 292.476 492.546 296.423C492.546 296.471 486.368 289.059 481.955 285.256Z" fill="#E20D33"/>
<rect x="513.666" y="232.644" width="50" height="70" rx="4" fill="#F3F2EF"/>
<path d="M519.689 258.029V261.908H529.342V267.644H534.168V261.908H537.159V257.343H534.168V238.679H529.661L519.689 258.029ZM528.823 249.303L529.701 246.354L529.342 249.384V257.343H524.755L528.823 249.303Z" fill="#0B152D"/>
<path d="M552.182 281.625C552.384 281.072 552.486 280.468 552.486 279.814C552.486 276.746 550.008 274.282 546.925 274.282C543.841 274.282 541.364 276.746 541.364 279.814C541.364 280.468 541.465 281.122 541.718 281.726C541.667 281.726 541.617 281.726 541.516 281.726C538.432 281.726 535.955 284.19 535.955 287.258C535.955 290.327 538.432 292.791 541.516 292.791C543.437 292.791 545.257 291.785 546.217 290.276V291.685C546.217 291.986 546.167 292.338 546.116 292.64C545.762 294.451 544.498 295.004 542.931 295.155V296.513H550.767V295.155C550.767 295.155 548.189 295.256 547.582 292.59C547.481 292.238 547.481 291.886 547.481 291.534V290.226C548.492 291.685 550.16 292.64 552.081 292.64C555.165 292.64 557.642 290.176 557.642 287.108C557.642 284.14 555.215 281.675 552.182 281.625ZM546.773 285.347V285.397C546.773 285.397 546.723 285.397 546.773 285.347Z" fill="#0B152D"/>
<path d="M401.166 342.144C401.166 326.956 413.478 314.644 428.666 314.644H540.666C555.854 314.644 568.166 326.956 568.166 342.144V342.144C568.166 357.332 555.854 369.644 540.666 369.644H428.666C413.478 369.644 401.166 357.332 401.166 342.144V342.144Z" fill="white" fill-opacity="0.08"/>
<circle cx="428.666" cy="342.144" r="19.5" fill="#009A95"/>
<mask id="mask2" style="mask-type:alpha" maskUnits="userSpaceOnUse" x="409" y="322" width="40" height="40">
<circle cx="428.666" cy="342.144" r="19.5" fill="#C4C4C4"/>
</mask>
<g mask="url(#mask2)">
<ellipse cx="428.666" cy="356.964" rx="14.82" ry="8.58001" fill="#49F2D3"/>
</g>
<ellipse cx="428.666" cy="339.219" rx="7.02" ry="7.02" fill="#49F2D3"/>
<path d="M465.838 349.144H468.473V344.229H471.257C474.617 344.229 476.421 342.212 476.421 339.414C476.421 336.637 474.638 334.599 471.293 334.599H465.838V349.144ZM468.473 342.063V336.8H470.888C472.862 336.8 473.736 337.866 473.736 339.414C473.736 340.962 472.862 342.063 470.902 342.063H468.473ZM481.367 334.599H478.796V349.144H481.367V334.599ZM487.35 349.364C489.061 349.364 490.084 348.562 490.553 347.645H490.638V349.144H493.11V341.843C493.11 338.959 490.759 338.093 488.678 338.093C486.384 338.093 484.622 339.116 484.054 341.104L486.455 341.445C486.71 340.699 487.435 340.06 488.692 340.06C489.885 340.06 490.539 340.671 490.539 341.743V341.786C490.539 342.525 489.764 342.56 487.84 342.766C485.723 342.993 483.699 343.626 483.699 346.083C483.699 348.228 485.269 349.364 487.35 349.364ZM488.017 347.475C486.945 347.475 486.178 346.985 486.178 346.04C486.178 345.053 487.037 344.641 488.188 344.478C488.862 344.386 490.212 344.215 490.546 343.945V345.231C490.546 346.445 489.566 347.475 488.017 347.475ZM497.102 353.235C499.105 353.235 500.263 352.205 500.881 350.465L505.263 338.249L502.514 338.235L499.993 346.474H499.879L497.365 338.235H494.638L498.594 349.371L498.374 349.961C497.898 351.204 497.145 351.289 496.023 350.962L495.426 352.965C495.774 353.107 496.399 353.235 497.102 353.235ZM511.706 349.357C514.248 349.357 515.995 348.114 516.45 346.218L514.049 345.948C513.701 346.871 512.849 347.354 511.741 347.354C510.079 347.354 508.978 346.261 508.957 344.393H516.556V343.604C516.556 339.776 514.255 338.093 511.571 338.093C508.446 338.093 506.407 340.387 506.407 343.753C506.407 347.177 508.417 349.357 511.706 349.357ZM508.964 342.66C509.042 341.268 510.072 340.096 511.606 340.096C513.083 340.096 514.078 341.175 514.092 342.66H508.964ZM518.932 349.144H521.503V342.731C521.503 341.346 522.547 340.366 523.96 340.366C524.393 340.366 524.933 340.444 525.153 340.515V338.15C524.919 338.107 524.514 338.079 524.23 338.079C522.98 338.079 521.936 338.789 521.538 340.053H521.424V338.235H518.932V349.144ZM537.414 349.343C540.525 349.343 542.79 347.56 542.783 345.103C542.79 343.285 541.654 341.978 539.616 341.687V341.573C541.192 341.232 542.251 340.06 542.243 338.427C542.251 336.211 540.361 334.4 537.457 334.4C534.63 334.4 532.442 336.083 532.386 338.519H534.921C534.964 337.297 536.1 336.538 537.442 336.538C538.799 336.538 539.701 337.361 539.694 338.583C539.701 339.854 538.65 340.699 537.144 340.699H535.859V342.731H537.144C538.984 342.731 540.077 343.654 540.07 344.968C540.077 346.253 538.962 347.134 537.407 347.134C535.944 347.134 534.815 346.374 534.751 345.188H532.08C532.151 347.645 534.346 349.343 537.414 349.343Z" fill="white"/>
<rect x="622" y="204.644" width="50" height="70" rx="4" fill="#F3F2EF"/>
<path d="M628.023 232.045C628.023 237.456 630.594 239.644 635.533 239.644C640.634 239.644 643.084 237.217 643.084 231.488V210.679H637.702V231.408C637.702 233.994 637.18 234.83 635.533 234.83C633.927 234.83 633.405 233.835 633.405 232.045V227.907H628.023V232.045Z" fill="#E20D33"/>
<path d="M644.289 257.256C644.289 257.256 651.448 251.095 654.88 246.282C654.88 246.282 661.647 254.32 665.373 257.256C665.373 257.256 657.822 264.476 654.88 268.423C654.88 268.471 648.702 261.059 644.289 257.256Z" fill="#E20D33"/>
<rect x="676" y="204.644" width="50" height="70" rx="4" fill="#F3F2EF"/>
<path d="M687.193 239.644L687.994 235.362H694.085L694.926 239.644H700.096L693.564 210.679H688.395L682.023 239.644H687.193ZM690.679 221.142L690.999 217.102L691.32 221.142L693.203 230.797H688.876L690.679 221.142Z" fill="#E20D33"/>
<path d="M720.578 252.807C720.578 249.21 717.986 246.282 714.825 246.282C712.336 246.282 710.211 248.08 709.434 250.649C708.656 248.08 706.531 246.282 704.043 246.282C700.881 246.282 698.289 249.21 698.289 252.807C698.289 254.142 698.652 255.376 699.222 256.403C699.274 256.506 699.378 256.66 699.429 256.763C702.021 260.719 709.485 267.912 709.485 267.912C709.485 267.912 718.66 258.818 719.801 256.146C720.319 255.17 720.578 254.04 720.578 252.807Z" fill="#E20D33"/>
<path d="M590.5 314.144C590.5 298.956 602.812 286.644 618 286.644H730C745.188 286.644 757.5 298.956 757.5 314.144V314.144C757.5 329.332 745.188 341.644 730 341.644H618C602.812 341.644 590.5 329.332 590.5 314.144V314.144Z" fill="white" fill-opacity="0.08"/>
<circle cx="618" cy="314.144" r="19.5" fill="#009A95"/>
<mask id="mask3" style="mask-type:alpha" maskUnits="userSpaceOnUse" x="598" y="294" width="40" height="40">
<circle cx="618" cy="314.144" r="19.5" fill="#C4C4C4"/>
</mask>
<g mask="url(#mask3)">
<ellipse cx="618" cy="328.964" rx="14.82" ry="8.58001" fill="#49F2D3"/>
</g>
<ellipse cx="618" cy="311.219" rx="7.02" ry="7.02" fill="#49F2D3"/>
<path d="M655.026 321.144H657.661V316.229H660.445C663.804 316.229 665.608 314.212 665.608 311.414C665.608 308.637 663.825 306.599 660.48 306.599H655.026V321.144ZM657.661 314.063V308.8H660.075C662.05 308.8 662.923 309.866 662.923 311.414C662.923 312.962 662.05 314.063 660.09 314.063H657.661ZM670.554 306.599H667.983V321.144H670.554V306.599ZM676.537 321.364C678.249 321.364 679.272 320.562 679.74 319.645H679.826V321.144H682.297V313.843C682.297 310.959 679.946 310.093 677.865 310.093C675.571 310.093 673.81 311.116 673.242 313.104L675.642 313.445C675.898 312.699 676.622 312.06 677.88 312.06C679.073 312.06 679.726 312.671 679.726 313.743V313.786C679.726 314.525 678.952 314.56 677.027 314.766C674.911 314.993 672.887 315.626 672.887 318.083C672.887 320.228 674.456 321.364 676.537 321.364ZM677.205 319.475C676.132 319.475 675.365 318.985 675.365 318.04C675.365 317.053 676.225 316.641 677.375 316.478C678.05 316.386 679.399 316.215 679.733 315.945V317.231C679.733 318.445 678.753 319.475 677.205 319.475ZM686.29 325.235C688.293 325.235 689.45 324.205 690.068 322.465L694.45 310.249L691.702 310.235L689.18 318.474H689.067L686.553 310.235H683.825L687.781 321.371L687.561 321.961C687.085 323.204 686.332 323.289 685.21 322.962L684.614 324.965C684.962 325.107 685.587 325.235 686.29 325.235ZM700.893 321.357C703.436 321.357 705.183 320.114 705.637 318.218L703.237 317.948C702.889 318.871 702.037 319.354 700.929 319.354C699.267 319.354 698.166 318.261 698.145 316.393H705.744V315.604C705.744 311.776 703.443 310.093 700.758 310.093C697.633 310.093 695.595 312.387 695.595 315.753C695.595 319.177 697.605 321.357 700.893 321.357ZM698.152 314.66C698.23 313.268 699.26 312.096 700.794 312.096C702.271 312.096 703.265 313.175 703.28 314.66H698.152ZM708.119 321.144H710.69V314.731C710.69 313.346 711.734 312.366 713.147 312.366C713.581 312.366 714.12 312.444 714.341 312.515V310.15C714.106 310.107 713.701 310.079 713.417 310.079C712.167 310.079 711.123 310.789 710.726 312.053H710.612V310.235H708.119V321.144ZM721.118 318.445H728.057V321.144H730.572V318.445H732.432V316.279H730.572V306.599H727.29L721.118 316.35V318.445ZM728.086 316.279H723.817V316.165L727.972 309.582H728.086V316.279Z" fill="white"/>
<rect x="339" y="83.644" width="50" height="70" rx="4" fill="#F3F2EF"/>
<path d="M345.023 108.115V111.254C345.023 116.221 347.667 118.644 353.237 118.644C358.727 118.644 361.288 115.863 361.288 111.095V105.254C361.288 101.082 359.621 98.3803 355.555 98.42C352.627 98.3803 351.285 99.6517 350.31 101.36C350.432 100.287 350.554 98.6187 350.798 96.8307C350.92 95.9963 351.042 95.1222 351.082 94.3672H355.636C358.564 94.3672 359.906 94.1288 360.435 92.8971C360.638 92.2614 360.801 91.268 360.801 89.9568V89.6787H346.772L345.186 104.102L350.147 105.373C350.188 105.334 350.432 104.658 350.432 104.658C351.042 103.585 351.855 102.751 353.319 102.751C355.108 102.751 355.962 103.665 355.962 105.532V110.618C355.962 112.684 355.311 113.876 353.237 113.876C351.245 113.876 350.554 112.962 350.554 110.857V108.115H345.023Z" fill="#0B152D"/>
<path d="M381.394 134.66C381.394 134.612 381.394 134.612 381.394 134.66C381.296 134.564 381.248 134.467 381.15 134.37C378.753 131.18 371.709 125.282 371.709 125.282C371.709 125.282 363.05 132.63 362.023 134.854C361.534 135.676 361.289 136.594 361.289 137.561C361.289 140.462 363.686 142.831 366.621 142.879C368.529 142.927 370.192 142.009 371.17 140.558V142.637C371.17 142.976 371.122 143.266 371.073 143.604C370.681 145.344 369.458 145.925 367.942 146.07V147.423H375.671V146.118C375.671 146.118 373.176 146.215 372.54 143.604C372.442 143.266 372.442 142.927 372.442 142.589V140.558C373.421 142.009 375.084 142.976 376.992 142.927C379.976 142.879 382.422 140.413 382.373 137.464C382.275 136.449 381.932 135.482 381.394 134.66Z" fill="#0B152D"/>
<rect x="394" y="83.644" width="50" height="70" rx="4" fill="#F3F2EF"/>
<path d="M400.023 89.6787V118.644H405.154V107.535L407.109 103.98L407.435 105.474L411.711 118.644H417.493L411.018 100.344L417.045 89.6787H411.141L405.317 100.627L405.073 101.313L405.154 99.8995V89.6787H400.023Z" fill="#0B152D"/>
<path d="M436.394 134.66C436.394 134.612 436.394 134.612 436.394 134.66C436.296 134.564 436.248 134.467 436.15 134.37C433.753 131.18 426.709 125.282 426.709 125.282C426.709 125.282 418.05 132.63 417.023 134.854C416.534 135.676 416.289 136.594 416.289 137.561C416.289 140.462 418.686 142.831 421.621 142.879C423.529 142.927 425.192 142.009 426.17 140.558V142.637C426.17 142.976 426.122 143.266 426.073 143.604C425.681 145.344 424.458 145.925 422.942 146.07V147.423H430.671V146.118C430.671 146.118 428.176 146.215 427.54 143.604C427.442 143.266 427.442 142.927 427.442 142.589V140.558C428.421 142.009 430.084 142.976 431.992 142.927C434.976 142.879 437.422 140.413 437.373 137.464C437.275 136.449 436.932 135.482 436.394 134.66Z" fill="#0B152D"/>
<path d="M356.682 61.644C361.114 61.644 363.799 58.9026 363.799 54.3571C363.799 49.8259 361.114 47.0986 356.725 47.0986H351.526V61.644H356.682ZM354.601 59.0091V49.7335H356.561C359.289 49.7335 360.73 51.1256 360.73 54.3571C360.73 57.6028 359.289 59.0091 356.554 59.0091H354.601ZM366.277 61.644H376.106V59.1085H369.352V55.6355H375.574V53.1H369.352V49.6341H376.078V47.0986H366.277V61.644ZM381.23 61.644L382.309 58.3273H387.558L388.638 61.644H391.933L386.919 47.0986H382.956L377.934 61.644H381.23ZM383.091 55.9267L384.88 50.4225H384.994L386.784 55.9267H383.091ZM393.884 61.644H403.195V59.1085H396.959V47.0986H393.884V61.644ZM405.431 61.644H415.261V59.1085H408.507V55.6355H414.728V53.1H408.507V49.6341H415.233V47.0986H405.431V61.644ZM417.877 61.644H420.953V56.4878H423.197L425.953 61.644H429.348L426.258 55.9906C427.913 55.2804 428.829 53.8386 428.829 51.85C428.829 48.9594 426.919 47.0986 423.616 47.0986H417.877V61.644ZM420.953 54.0162V49.6128H423.027C424.802 49.6128 425.662 50.4011 425.662 51.85C425.662 53.2918 424.802 54.0162 423.041 54.0162H420.953Z" fill="white"/>
</svg>
