<svg width="780" height="411" viewBox="0 0 780 411" fill="none" xmlns="http://www.w3.org/2000/svg">
<rect y="0.644043" width="780" height="410" rx="8" fill="#0B152D"/>
<rect x="54" y="204.644" width="50" height="70" rx="4" fill="#F3F2EF"/>
<path d="M68.1363 240.074C68.412 240.074 68.6876 240.074 68.9633 240.034L70.4599 243.265H76.2491L73.5317 238.478C75.2645 237.082 76.2885 234.729 76.2885 231.379V219.373C76.2885 213.51 73.0591 210.678 68.1757 210.678C63.2528 210.678 60.0234 213.51 60.0234 219.373V231.379C60.0234 237.402 63.1347 240.074 68.1363 240.074ZM65.2613 230.98V219.613C65.2613 216.701 66.0884 215.265 68.1363 215.265C70.2236 215.265 71.0506 216.621 71.0506 219.613V230.98C71.0506 233.892 70.2236 235.288 68.1757 235.288C66.0884 235.288 65.2613 233.892 65.2613 230.98Z" fill="#0B152D"/>
<path d="M92.5162 253.625C92.7184 253.072 92.8195 252.469 92.8195 251.815C92.8195 248.747 90.3425 246.282 87.2588 246.282C84.1752 246.282 81.6981 248.747 81.6981 251.815C81.6981 252.469 81.7992 253.122 82.052 253.726C82.0014 253.726 81.9509 253.726 81.8498 253.726C78.7661 253.726 76.2891 256.191 76.2891 259.259C76.2891 262.327 78.7661 264.791 81.8498 264.791C83.7707 264.791 85.5906 263.785 86.5511 262.276V263.685C86.5511 263.987 86.5005 264.339 86.45 264.64C86.0961 266.451 84.8323 267.004 83.2652 267.155V268.513H91.1008V267.155C91.1008 267.155 88.5226 267.256 87.916 264.59C87.8149 264.238 87.8149 263.886 87.8149 263.534V262.226C88.8259 263.685 90.4941 264.64 92.4151 264.64C95.4988 264.64 97.9758 262.176 97.9758 259.108C97.9758 256.14 95.5493 253.676 92.5162 253.625ZM87.1072 257.347V257.398C87.1072 257.398 87.0566 257.398 87.1072 257.347Z" fill="#0B152D"/>
<rect x="108" y="204.644" width="50" height="70" rx="4" fill="#F3F2EF"/>
<path d="M114.023 229.309V233.156C114.023 237.683 116.449 240.247 122.017 240.247C127.743 240.247 130.288 237.323 130.288 233.196V230.071C130.288 227.346 129.175 225.703 127.067 224.942C129.095 224.101 129.931 222.418 129.931 219.974V217.169C129.931 213.163 127.306 210.678 122.096 210.678C117.125 210.678 114.262 213.243 114.262 217.53V220.815H119.432V217.89C119.432 216.248 120.187 215.326 122.057 215.326C124.005 215.326 124.681 216.168 124.681 217.89V220.334C124.681 222.097 123.767 222.979 121.977 222.979H119.949V227.106H121.937C124.005 227.106 124.92 227.867 124.92 229.67V232.515C124.92 234.398 124.164 235.359 122.057 235.359C120.108 235.359 119.273 234.518 119.273 232.715V229.309H114.023Z" fill="#E20D33"/>
<path d="M152.578 252.807C152.578 249.21 149.986 246.282 146.825 246.282C144.336 246.282 142.211 248.08 141.434 250.649C140.656 248.08 138.531 246.282 136.043 246.282C132.881 246.282 130.289 249.21 130.289 252.807C130.289 254.143 130.652 255.376 131.222 256.403C131.274 256.506 131.378 256.66 131.429 256.763C134.021 260.719 141.485 267.912 141.485 267.912C141.485 267.912 150.66 258.818 151.801 256.146C152.319 255.17 152.578 254.04 152.578 252.807Z" fill="#E20D33"/>
<path d="M28 314.144C28 298.956 40.3122 286.644 55.5 286.644H156.5C171.688 286.644 184 298.956 184 314.144V314.144C184 329.332 171.688 341.644 156.5 341.644H55.5C40.3122 341.644 28 329.332 28 314.144V314.144Z" fill="white" fill-opacity="0.08"/>
<circle cx="55.5" cy="314.144" r="19.5" fill="#009A95"/>
<mask id="mask0" style="mask-type:alpha" maskUnits="userSpaceOnUse" x="36" y="294" width="39" height="40">
<circle cx="55.5" cy="314.144" r="19.5" fill="#C4C4C4"/>
</mask>
<g mask="url(#mask0)">
<ellipse cx="55.4997" cy="328.964" rx="14.82" ry="8.58001" fill="#49F2D3"/>
</g>
<ellipse cx="55.5005" cy="311.219" rx="7.02" ry="7.02" fill="#49F2D3"/>
<path d="M84.8811 321.144H87.5161V316.229H90.3002C93.6596 316.229 95.4635 314.212 95.4635 311.414C95.4635 308.637 93.6809 306.599 90.3357 306.599H84.8811V321.144ZM87.5161 314.063V308.8H89.9309C91.9053 308.8 92.7789 309.866 92.7789 311.414C92.7789 312.962 91.9053 314.063 89.9451 314.063H87.5161ZM100.41 306.599H97.8386V321.144H100.41V306.599ZM106.393 321.364C108.104 321.364 109.127 320.562 109.596 319.645H109.681V321.144H112.153V313.843C112.153 310.959 109.802 310.093 107.721 310.093C105.427 310.093 103.665 311.116 103.097 313.104L105.498 313.445C105.753 312.699 106.478 312.06 107.735 312.06C108.928 312.06 109.582 312.671 109.582 313.743V313.786C109.582 314.525 108.807 314.56 106.883 314.766C104.766 314.993 102.742 315.626 102.742 318.083C102.742 320.228 104.312 321.364 106.393 321.364ZM107.06 319.475C105.988 319.475 105.221 318.985 105.221 318.04C105.221 317.053 106.08 316.641 107.231 316.478C107.905 316.386 109.255 316.215 109.589 315.945V317.231C109.589 318.445 108.609 319.475 107.06 319.475ZM116.145 325.235C118.148 325.235 119.306 324.205 119.924 322.465L124.306 310.249L121.557 310.235L119.036 318.474H118.922L116.408 310.235H113.681L117.637 321.371L117.417 321.961C116.941 323.204 116.188 323.289 115.066 322.962L114.469 324.965C114.817 325.107 115.442 325.235 116.145 325.235ZM130.749 321.357C133.291 321.357 135.038 320.114 135.493 318.218L133.092 317.948C132.744 318.871 131.892 319.354 130.784 319.354C129.122 319.354 128.021 318.261 128 316.393H135.599V315.604C135.599 311.776 133.298 310.093 130.614 310.093C127.489 310.093 125.45 312.387 125.45 315.753C125.45 319.177 127.46 321.357 130.749 321.357ZM128.007 314.66C128.085 313.268 129.115 312.096 130.649 312.096C132.126 312.096 133.121 313.175 133.135 314.66H128.007ZM137.975 321.144H140.546V314.731C140.546 313.346 141.59 312.366 143.003 312.366C143.436 312.366 143.976 312.444 144.196 312.515V310.15C143.962 310.107 143.557 310.079 143.273 310.079C142.023 310.079 140.979 310.789 140.581 312.053H140.467V310.235H137.975V321.144ZM157.153 306.599H154.646L151.031 308.921V311.336L154.433 309.163H154.518V321.144H157.153V306.599Z" fill="white"/>
<rect x="243.334" y="232.644" width="50" height="70" rx="4" fill="#F3F2EF"/>
<path d="M257.47 268.074C257.746 268.074 258.022 268.074 258.297 268.034L259.794 271.265H265.583L262.866 266.478C264.599 265.082 265.622 262.729 265.622 259.379V247.373C265.622 241.51 262.393 238.678 257.51 238.678C252.587 238.678 249.357 241.51 249.357 247.373V259.379C249.357 265.402 252.469 268.074 257.47 268.074ZM254.595 258.98V247.613C254.595 244.701 255.422 243.265 257.47 243.265C259.558 243.265 260.385 244.621 260.385 247.613V258.98C260.385 261.892 259.558 263.288 257.51 263.288C255.422 263.288 254.595 261.892 254.595 258.98Z" fill="#E20D33"/>
<path d="M265.623 285.256C265.623 285.256 272.782 279.095 276.214 274.282C276.214 274.282 282.981 282.32 286.707 285.256C286.707 285.256 279.156 292.476 276.214 296.423C276.214 296.471 270.036 289.059 265.623 285.256Z" fill="#E20D33"/>
<rect x="297.334" y="232.644" width="50" height="70" rx="4" fill="#F3F2EF"/>
<path d="M303.357 257.309V261.156C303.357 265.683 305.783 268.247 311.351 268.247C317.077 268.247 319.622 265.323 319.622 261.196V258.071C319.622 255.346 318.509 253.703 316.401 252.942C318.429 252.101 319.265 250.418 319.265 247.974V245.169C319.265 241.163 316.64 238.678 311.43 238.678C306.459 238.678 303.596 241.243 303.596 245.53V248.815H308.766V245.89C308.766 244.248 309.521 243.326 311.391 243.326C313.339 243.326 314.015 244.168 314.015 245.89V248.334C314.015 250.097 313.101 250.979 311.311 250.979H309.283V255.106H311.271C313.339 255.106 314.254 255.867 314.254 257.67V260.515C314.254 262.398 313.498 263.359 311.391 263.359C309.442 263.359 308.607 262.518 308.607 260.715V257.309H303.357Z" fill="#0B152D"/>
<path d="M339.728 283.661C339.728 283.612 339.728 283.612 339.728 283.661C339.63 283.564 339.582 283.467 339.484 283.371C337.087 280.18 330.043 274.282 330.043 274.282C330.043 274.282 321.384 281.63 320.357 283.854C319.868 284.676 319.623 285.594 319.623 286.561C319.623 289.462 322.02 291.831 324.955 291.879C326.863 291.928 328.526 291.009 329.504 289.559V291.637C329.504 291.976 329.456 292.266 329.407 292.604C329.015 294.345 327.792 294.925 326.276 295.07V296.424H334.005V295.118C334.005 295.118 331.51 295.215 330.874 292.604C330.776 292.266 330.776 291.928 330.776 291.589V289.559C331.755 291.009 333.418 291.976 335.326 291.928C338.31 291.879 340.756 289.414 340.707 286.465C340.609 285.449 340.266 284.483 339.728 283.661Z" fill="#0B152D"/>
<path d="M212.334 342.144C212.334 326.956 224.646 314.644 239.834 314.644H350.834C366.022 314.644 378.334 326.956 378.334 342.144V342.144C378.334 357.332 366.022 369.644 350.834 369.644H239.834C224.646 369.644 212.334 357.332 212.334 342.144V342.144Z" fill="white" fill-opacity="0.08"/>
<circle cx="239.834" cy="342.144" r="19.5" fill="#009A95"/>
<mask id="mask1" style="mask-type:alpha" maskUnits="userSpaceOnUse" x="220" y="322" width="40" height="40">
<circle cx="239.834" cy="342.144" r="19.5" fill="#C4C4C4"/>
</mask>
<g mask="url(#mask1)">
<ellipse cx="239.834" cy="356.964" rx="14.82" ry="8.58001" fill="#49F2D3"/>
</g>
<ellipse cx="239.834" cy="339.219" rx="7.02" ry="7.02" fill="#49F2D3"/>
<path d="M276.809 349.144H279.444V344.229H282.228C285.587 344.229 287.391 342.212 287.391 339.414C287.391 336.637 285.609 334.599 282.263 334.599H276.809V349.144ZM279.444 342.063V336.8H281.859C283.833 336.8 284.707 337.866 284.707 339.414C284.707 340.962 283.833 342.063 281.873 342.063H279.444ZM292.337 334.599H289.766V349.144H292.337V334.599ZM298.32 349.364C300.032 349.364 301.055 348.562 301.524 347.645H301.609V349.144H304.08V341.843C304.08 338.959 301.729 338.093 299.649 338.093C297.354 338.093 295.593 339.116 295.025 341.104L297.425 341.445C297.681 340.699 298.406 340.06 299.663 340.06C300.856 340.06 301.509 340.671 301.509 341.743V341.786C301.509 342.525 300.735 342.56 298.81 342.766C296.694 342.993 294.67 343.626 294.67 346.083C294.67 348.228 296.239 349.364 298.32 349.364ZM298.988 347.475C297.916 347.475 297.149 346.985 297.149 346.04C297.149 345.053 298.008 344.641 299.158 344.478C299.833 344.386 301.183 344.215 301.516 343.945V345.231C301.516 346.445 300.536 347.475 298.988 347.475ZM308.073 353.235C310.076 353.235 311.233 352.205 311.851 350.465L316.233 338.249L313.485 338.235L310.964 346.474H310.85L308.336 338.235H305.608L309.564 349.371L309.344 349.961C308.868 351.204 308.116 351.289 306.993 350.962L306.397 352.965C306.745 353.107 307.37 353.235 308.073 353.235ZM322.676 349.357C325.219 349.357 326.966 348.114 327.421 346.218L325.02 345.948C324.672 346.871 323.82 347.354 322.712 347.354C321.05 347.354 319.949 346.261 319.928 344.393H327.527V343.604C327.527 339.776 325.226 338.093 322.541 338.093C319.416 338.093 317.378 340.387 317.378 343.753C317.378 347.177 319.388 349.357 322.676 349.357ZM319.935 342.66C320.013 341.268 321.043 340.096 322.577 340.096C324.054 340.096 325.049 341.175 325.063 342.66H319.935ZM329.902 349.144H332.473V342.731C332.473 341.346 333.517 340.366 334.931 340.366C335.364 340.366 335.904 340.444 336.124 340.515V338.15C335.889 338.107 335.485 338.079 335.201 338.079C333.951 338.079 332.907 338.789 332.509 340.053H332.395V338.235H329.902V349.144ZM343.164 349.144H353.136V346.942H346.801V346.843L349.308 344.293C352.135 341.58 352.916 340.259 352.916 338.618C352.916 336.182 350.934 334.4 348.008 334.4C345.125 334.4 343.079 336.189 343.079 338.952H345.586C345.586 337.468 346.524 336.538 347.973 336.538C349.358 336.538 350.387 337.383 350.387 338.753C350.387 339.968 349.649 340.834 348.214 342.29L343.164 347.241V349.144Z" fill="white"/>
<rect x="432.666" y="232.644" width="50" height="70" rx="4" fill="#F3F2EF"/>
<path d="M438.689 257.309V261.156C438.689 265.683 441.115 268.247 446.683 268.247C452.409 268.247 454.955 265.323 454.955 261.196V258.071C454.955 255.346 453.841 253.703 451.733 252.942C453.761 252.101 454.597 250.418 454.597 247.974V245.169C454.597 241.163 451.972 238.678 446.762 238.678C441.791 238.678 438.928 241.243 438.928 245.53V248.815H444.098V245.89C444.098 244.248 444.853 243.326 446.723 243.326C448.671 243.326 449.347 244.168 449.347 245.89V248.334C449.347 250.097 448.433 250.979 446.643 250.979H444.615V255.106H446.603C448.671 255.106 449.586 255.867 449.586 257.67V260.515C449.586 262.398 448.83 263.359 446.723 263.359C444.774 263.359 443.939 262.518 443.939 260.715V257.309H438.689Z" fill="#E20D33"/>
<path d="M477.244 280.807C477.244 277.21 474.652 274.282 471.491 274.282C469.002 274.282 466.877 276.08 466.1 278.649C465.322 276.08 463.197 274.282 460.709 274.282C457.547 274.282 454.955 277.21 454.955 280.807C454.955 282.143 455.318 283.376 455.888 284.403C455.94 284.506 456.044 284.66 456.095 284.763C458.687 288.719 466.151 295.912 466.151 295.912C466.151 295.912 475.326 286.818 476.467 284.146C476.985 283.17 477.244 282.04 477.244 280.807Z" fill="#E20D33"/>
<rect x="486.666" y="232.644" width="50" height="70" rx="4" fill="#F3F2EF"/>
<path d="M505.347 267.767V262.806H501.667V239.079H497.583C496.976 241.679 495.803 243 493.417 243.36V247.161H496.531V262.806H492.689V267.767H505.347Z" fill="#E20D33"/>
<path d="M507.273 259.445C507.273 265.487 510.468 268.247 515.644 268.247C520.699 268.247 524.015 265.487 524.015 259.445V247.441C524.015 241.559 520.699 238.678 515.644 238.678C510.589 238.678 507.273 241.559 507.273 247.441V259.445ZM515.644 243.24C517.747 243.24 518.596 244.64 518.596 247.641V259.165C518.596 262.086 517.747 263.486 515.644 263.486C513.501 263.486 512.692 262.086 512.692 259.165V247.641C512.692 244.76 513.501 243.24 515.644 243.24Z" fill="#E20D33"/>
<path d="M508.955 285.256C508.955 285.256 516.114 279.095 519.546 274.282C519.546 274.282 526.313 282.32 530.039 285.256C530.039 285.256 522.488 292.476 519.546 296.423C519.546 296.471 513.368 289.059 508.955 285.256Z" fill="#E20D33"/>
<path d="M401.166 342.144C401.166 326.956 413.478 314.644 428.666 314.644H540.666C555.854 314.644 568.166 326.956 568.166 342.144V342.144C568.166 357.332 555.854 369.644 540.666 369.644H428.666C413.478 369.644 401.166 357.332 401.166 342.144V342.144Z" fill="white" fill-opacity="0.08"/>
<circle cx="428.666" cy="342.144" r="19.5" fill="#009A95"/>
<mask id="mask2" style="mask-type:alpha" maskUnits="userSpaceOnUse" x="409" y="322" width="40" height="40">
<circle cx="428.666" cy="342.144" r="19.5" fill="#C4C4C4"/>
</mask>
<g mask="url(#mask2)">
<ellipse cx="428.666" cy="356.964" rx="14.82" ry="8.58001" fill="#49F2D3"/>
</g>
<ellipse cx="428.666" cy="339.219" rx="7.02" ry="7.02" fill="#49F2D3"/>
<path d="M465.838 349.144H468.473V344.229H471.257C474.617 344.229 476.421 342.212 476.421 339.414C476.421 336.637 474.638 334.599 471.293 334.599H465.838V349.144ZM468.473 342.063V336.8H470.888C472.862 336.8 473.736 337.866 473.736 339.414C473.736 340.962 472.862 342.063 470.902 342.063H468.473ZM481.367 334.599H478.796V349.144H481.367V334.599ZM487.35 349.364C489.061 349.364 490.084 348.562 490.553 347.645H490.638V349.144H493.11V341.843C493.11 338.959 490.759 338.093 488.678 338.093C486.384 338.093 484.622 339.116 484.054 341.104L486.455 341.445C486.71 340.699 487.435 340.06 488.692 340.06C489.885 340.06 490.539 340.671 490.539 341.743V341.786C490.539 342.525 489.764 342.56 487.84 342.766C485.723 342.993 483.699 343.626 483.699 346.083C483.699 348.228 485.269 349.364 487.35 349.364ZM488.017 347.475C486.945 347.475 486.178 346.985 486.178 346.04C486.178 345.053 487.037 344.641 488.188 344.478C488.862 344.386 490.212 344.215 490.546 343.945V345.231C490.546 346.445 489.566 347.475 488.017 347.475ZM497.102 353.235C499.105 353.235 500.263 352.205 500.881 350.465L505.263 338.249L502.514 338.235L499.993 346.474H499.879L497.365 338.235H494.638L498.594 349.371L498.374 349.961C497.898 351.204 497.145 351.289 496.023 350.962L495.426 352.965C495.774 353.107 496.399 353.235 497.102 353.235ZM511.706 349.357C514.248 349.357 515.995 348.114 516.45 346.218L514.049 345.948C513.701 346.871 512.849 347.354 511.741 347.354C510.079 347.354 508.978 346.261 508.957 344.393H516.556V343.604C516.556 339.776 514.255 338.093 511.571 338.093C508.446 338.093 506.407 340.387 506.407 343.753C506.407 347.177 508.417 349.357 511.706 349.357ZM508.964 342.66C509.042 341.268 510.072 340.096 511.606 340.096C513.083 340.096 514.078 341.175 514.092 342.66H508.964ZM518.932 349.144H521.503V342.731C521.503 341.346 522.547 340.366 523.96 340.366C524.393 340.366 524.933 340.444 525.153 340.515V338.15C524.919 338.107 524.514 338.079 524.23 338.079C522.98 338.079 521.936 338.789 521.538 340.053H521.424V338.235H518.932V349.144ZM537.414 349.343C540.525 349.343 542.79 347.56 542.783 345.103C542.79 343.285 541.654 341.978 539.616 341.687V341.573C541.192 341.232 542.251 340.06 542.243 338.427C542.251 336.211 540.361 334.4 537.457 334.4C534.63 334.4 532.442 336.083 532.386 338.519H534.921C534.964 337.297 536.1 336.538 537.442 336.538C538.799 336.538 539.701 337.361 539.694 338.583C539.701 339.854 538.65 340.699 537.144 340.699H535.859V342.731H537.144C538.984 342.731 540.077 343.654 540.07 344.968C540.077 346.253 538.962 347.134 537.407 347.134C535.944 347.134 534.815 346.374 534.751 345.188H532.08C532.151 347.645 534.346 349.343 537.414 349.343Z" fill="white"/>
<rect x="622" y="204.644" width="50" height="70" rx="4" fill="#F3F2EF"/>
<path d="M628.023 232.045C628.023 237.456 630.594 239.644 635.533 239.644C640.634 239.644 643.084 237.217 643.084 231.487V210.678H637.702V231.408C637.702 233.994 637.18 234.83 635.533 234.83C633.927 234.83 633.405 233.835 633.405 232.045V227.907H628.023V232.045Z" fill="#E20D33"/>
<path d="M644.289 257.256C644.289 257.256 651.448 251.095 654.88 246.282C654.88 246.282 661.647 254.32 665.373 257.256C665.373 257.256 657.822 264.476 654.88 268.423C654.88 268.471 648.702 261.059 644.289 257.256Z" fill="#E20D33"/>
<rect x="676" y="204.644" width="50" height="70" rx="4" fill="#F3F2EF"/>
<path d="M687.193 239.644L687.994 235.362H694.085L694.926 239.644H700.096L693.564 210.678H688.395L682.023 239.644H687.193ZM690.679 221.142L690.999 217.102L691.32 221.142L693.203 230.797H688.876L690.679 221.142Z" fill="#E20D33"/>
<path d="M720.578 252.807C720.578 249.21 717.986 246.282 714.825 246.282C712.336 246.282 710.211 248.08 709.434 250.649C708.656 248.08 706.531 246.282 704.043 246.282C700.881 246.282 698.289 249.21 698.289 252.807C698.289 254.143 698.652 255.376 699.222 256.403C699.274 256.506 699.378 256.66 699.429 256.763C702.021 260.719 709.485 267.912 709.485 267.912C709.485 267.912 718.66 258.818 719.801 256.146C720.319 255.17 720.578 254.04 720.578 252.807Z" fill="#E20D33"/>
<path d="M590.5 314.144C590.5 298.956 602.812 286.644 618 286.644H730C745.188 286.644 757.5 298.956 757.5 314.144V314.144C757.5 329.332 745.188 341.644 730 341.644H618C602.812 341.644 590.5 329.332 590.5 314.144V314.144Z" fill="white" fill-opacity="0.08"/>
<circle cx="618" cy="314.144" r="19.5" fill="#009A95"/>
<mask id="mask3" style="mask-type:alpha" maskUnits="userSpaceOnUse" x="598" y="294" width="40" height="40">
<circle cx="618" cy="314.144" r="19.5" fill="#C4C4C4"/>
</mask>
<g mask="url(#mask3)">
<ellipse cx="618" cy="328.964" rx="14.82" ry="8.58001" fill="#49F2D3"/>
</g>
<ellipse cx="618" cy="311.219" rx="7.02" ry="7.02" fill="#49F2D3"/>
<path d="M655.026 321.144H657.661V316.229H660.445C663.804 316.229 665.608 314.212 665.608 311.414C665.608 308.637 663.825 306.599 660.48 306.599H655.026V321.144ZM657.661 314.063V308.8H660.075C662.05 308.8 662.923 309.866 662.923 311.414C662.923 312.962 662.05 314.063 660.09 314.063H657.661ZM670.554 306.599H667.983V321.144H670.554V306.599ZM676.537 321.364C678.249 321.364 679.272 320.562 679.74 319.645H679.826V321.144H682.297V313.843C682.297 310.959 679.946 310.093 677.865 310.093C675.571 310.093 673.81 311.116 673.242 313.104L675.642 313.445C675.898 312.699 676.622 312.06 677.88 312.06C679.073 312.06 679.726 312.671 679.726 313.743V313.786C679.726 314.525 678.952 314.56 677.027 314.766C674.911 314.993 672.887 315.626 672.887 318.083C672.887 320.228 674.456 321.364 676.537 321.364ZM677.205 319.475C676.132 319.475 675.365 318.985 675.365 318.04C675.365 317.053 676.225 316.641 677.375 316.478C678.05 316.386 679.399 316.215 679.733 315.945V317.231C679.733 318.445 678.753 319.475 677.205 319.475ZM686.29 325.235C688.293 325.235 689.45 324.205 690.068 322.465L694.45 310.249L691.702 310.235L689.18 318.474H689.067L686.553 310.235H683.825L687.781 321.371L687.561 321.961C687.085 323.204 686.332 323.289 685.21 322.962L684.614 324.965C684.962 325.107 685.587 325.235 686.29 325.235ZM700.893 321.357C703.436 321.357 705.183 320.114 705.637 318.218L703.237 317.948C702.889 318.871 702.037 319.354 700.929 319.354C699.267 319.354 698.166 318.261 698.145 316.393H705.744V315.604C705.744 311.776 703.443 310.093 700.758 310.093C697.633 310.093 695.595 312.387 695.595 315.753C695.595 319.177 697.605 321.357 700.893 321.357ZM698.152 314.66C698.23 313.268 699.26 312.096 700.794 312.096C702.271 312.096 703.265 313.175 703.28 314.66H698.152ZM708.119 321.144H710.69V314.731C710.69 313.346 711.734 312.366 713.147 312.366C713.581 312.366 714.12 312.444 714.341 312.515V310.15C714.106 310.107 713.701 310.079 713.417 310.079C712.167 310.079 711.123 310.789 710.726 312.053H710.612V310.235H708.119V321.144ZM721.118 318.445H728.057V321.144H730.572V318.445H732.432V316.279H730.572V306.599H727.29L721.118 316.35V318.445ZM728.086 316.279H723.817V316.165L727.972 309.582H728.086V316.279Z" fill="white"/>
<rect x="339" y="83.644" width="50" height="70" rx="4" fill="#F3F2EF"/>
<path d="M345.023 108.115V111.254C345.023 116.22 347.667 118.644 353.237 118.644C358.727 118.644 361.288 115.863 361.288 111.095V105.254C361.288 101.082 359.621 98.38 355.555 98.4198C352.627 98.38 351.285 99.6515 350.31 101.36C350.432 100.287 350.554 98.6184 350.798 96.8304C350.92 95.996 351.042 95.1219 351.082 94.367H355.636C358.564 94.367 359.906 94.1286 360.435 92.8969C360.638 92.2611 360.801 91.2678 360.801 89.9566V89.6785H346.772L345.186 104.102L350.147 105.373C350.188 105.333 350.432 104.658 350.432 104.658C351.042 103.585 351.855 102.751 353.319 102.751C355.108 102.751 355.962 103.665 355.962 105.532V110.618C355.962 112.684 355.311 113.876 353.237 113.876C351.245 113.876 350.554 112.962 350.554 110.856V108.115H345.023Z" fill="#0B152D"/>
<path d="M381.394 134.661C381.394 134.612 381.394 134.612 381.394 134.661C381.296 134.564 381.248 134.467 381.15 134.371C378.753 131.18 371.709 125.282 371.709 125.282C371.709 125.282 363.05 132.63 362.023 134.854C361.534 135.676 361.289 136.594 361.289 137.561C361.289 140.462 363.686 142.831 366.621 142.879C368.529 142.928 370.192 142.009 371.17 140.559V142.637C371.17 142.976 371.122 143.266 371.073 143.604C370.681 145.345 369.458 145.925 367.942 146.07V147.424H375.671V146.118C375.671 146.118 373.176 146.215 372.54 143.604C372.442 143.266 372.442 142.928 372.442 142.589V140.559C373.421 142.009 375.084 142.976 376.992 142.928C379.976 142.879 382.422 140.414 382.373 137.465C382.275 136.449 381.932 135.483 381.394 134.661Z" fill="#0B152D"/>
<g clip-path="url(#clip0)">
<rect x="396.5" y="85.644" width="46" height="66" rx="2" fill="white"/>
<path d="M428.821 139.537C428.769 141.799 428.652 144.037 428.471 146.254L442.499 142.889V130.982L428.831 134.55C428.862 136.224 428.859 137.886 428.821 139.537Z" fill="#0B152D"/>
<path d="M420.241 96.4111C421.109 98.304 421.903 100.2 422.624 102.1L442.48 94.5962V85.644H433.909L418.213 92.2556C418.932 93.6396 419.608 95.0248 420.241 96.4111Z" fill="#0B152D"/>
<path d="M426.904 116.999C427.31 119.034 427.65 121.054 427.924 123.057L442.485 118.742V106.903L425.898 112.531C426.282 114.02 426.613 115.513 426.904 116.999Z" fill="#0B152D"/>
<path d="M428.503 128.424C428.673 130.477 428.784 132.52 428.834 134.55L442.498 130.982V118.742L427.938 123.057C428.171 124.855 428.36 126.644 428.503 128.424Z" fill="#0B152D"/>
<path d="M428.503 128.424C428.673 130.477 428.784 132.52 428.834 134.55L442.498 130.982V118.742L427.938 123.057C428.171 124.855 428.36 126.644 428.503 128.424Z" fill="url(#paint0_linear)"/>
<path d="M415.5 87.3843C416.464 89.0035 417.368 90.6273 418.213 92.2556L433.919 85.644H414.438C414.798 86.2241 415.152 86.8008 415.5 87.3843Z" fill="#0B152D"/>
<path d="M415.5 87.3843C416.464 89.0035 417.368 90.6273 418.213 92.2556L433.919 85.644H414.438C414.798 86.2241 415.152 86.8008 415.5 87.3843Z" fill="url(#paint1_linear)"/>
<path d="M428.003 150.925C427.973 151.166 427.94 151.403 427.91 151.644H442.501V142.888L428.483 146.254C428.341 147.825 428.182 149.382 428.003 150.925Z" fill="#0B152D"/>
<path d="M428.003 150.925C427.973 151.166 427.94 151.403 427.91 151.644H442.501V142.888L428.483 146.254C428.341 147.825 428.182 149.382 428.003 150.925Z" fill="url(#paint2_linear)"/>
<path d="M424.369 107.117C424.938 108.926 425.449 110.735 425.901 112.545L442.5 106.903V94.5962L422.645 102.1C423.267 103.773 423.841 105.446 424.369 107.117Z" fill="#0B152D"/>
<path d="M424.369 107.117C424.938 108.926 425.449 110.735 425.901 112.545L442.5 106.903V94.5962L422.645 102.1C423.267 103.773 423.841 105.446 424.369 107.117Z" fill="url(#paint3_linear)"/>
<path d="M428.822 134.551C428.776 132.515 428.665 130.473 428.491 128.424L396.5 137.42V147.485L428.822 139.537C428.859 137.886 428.859 136.224 428.822 134.551Z" fill="#0B152D"/>
<path d="M424.531 151.644H427.908C427.937 151.403 427.97 151.166 428 150.925L424.531 151.644Z" fill="#0B152D"/>
<path d="M425.9 112.531C425.445 110.722 424.935 108.913 424.368 107.104L396.5 117.134V126.83L426.906 116.992C426.615 115.513 426.284 114.02 425.9 112.531Z" fill="#0B152D"/>
<path d="M418.212 92.2556C417.37 90.6273 416.465 89.0035 415.499 87.3843L396.5 95.7089V105.906L420.241 96.4077C419.606 95.0214 418.929 93.6374 418.212 92.2556Z" fill="#0B152D"/>
<path d="M414.436 85.644H396.5V95.7089L415.499 87.3843C415.151 86.8008 414.797 86.2241 414.436 85.644Z" fill="#0B152D"/>
<path d="M414.436 85.644H396.5V95.7089L415.499 87.3843C415.151 86.8008 414.797 86.2241 414.436 85.644Z" fill="url(#paint4_linear)"/>
<path d="M422.624 102.1C421.902 100.2 421.108 98.304 420.241 96.4111L396.5 105.906V117.134L424.368 107.117C423.838 105.446 423.257 103.773 422.624 102.1Z" fill="#0B152D"/>
<path d="M422.624 102.1C421.902 100.2 421.108 98.304 420.241 96.4111L396.5 105.906V117.134L424.368 107.117C423.838 105.446 423.257 103.773 422.624 102.1Z" fill="url(#paint5_linear)"/>
<path d="M428.471 146.254C428.65 144.04 428.767 141.801 428.822 139.537L396.5 147.485V151.644H424.533L428.001 150.925C428.18 149.38 428.337 147.823 428.471 146.254Z" fill="#0B152D"/>
<path d="M428.471 146.254C428.65 144.04 428.767 141.801 428.822 139.537L396.5 147.485V151.644H424.533L428.001 150.925C428.18 149.38 428.337 147.823 428.471 146.254Z" fill="url(#paint6_linear)"/>
<path d="M427.938 123.057C427.665 121.045 427.325 119.025 426.919 116.999L396.5 126.83V137.42L428.504 128.424C428.363 126.644 428.174 124.855 427.938 123.057Z" fill="#0B152D"/>
<path d="M427.938 123.057C427.665 121.045 427.325 119.025 426.919 116.999L396.5 126.83V137.42L428.504 128.424C428.363 126.644 428.174 124.855 427.938 123.057Z" fill="url(#paint7_linear)"/>
</g>
<rect x="396.5" y="85.644" width="46" height="66" rx="2" stroke="white" stroke-width="4"/>
<path d="M356.682 61.644C361.114 61.644 363.799 58.9026 363.799 54.3571C363.799 49.8259 361.114 47.0986 356.725 47.0986H351.526V61.644H356.682ZM354.601 59.0091V49.7335H356.561C359.289 49.7335 360.73 51.1256 360.73 54.3571C360.73 57.6028 359.289 59.0091 356.554 59.0091H354.601ZM366.277 61.644H376.106V59.1085H369.352V55.6355H375.574V53.1H369.352V49.6341H376.078V47.0986H366.277V61.644ZM381.23 61.644L382.309 58.3273H387.558L388.638 61.644H391.933L386.919 47.0986H382.956L377.934 61.644H381.23ZM383.091 55.9267L384.88 50.4225H384.994L386.784 55.9267H383.091ZM393.884 61.644H403.195V59.1085H396.959V47.0986H393.884V61.644ZM405.431 61.644H415.261V59.1085H408.507V55.6355H414.728V53.1H408.507V49.6341H415.233V47.0986H405.431V61.644ZM417.877 61.644H420.953V56.4878H423.197L425.953 61.644H429.348L426.258 55.9906C427.913 55.2804 428.829 53.8386 428.829 51.85C428.829 48.9594 426.919 47.0986 423.616 47.0986H417.877V61.644ZM420.953 54.0162V49.6128H423.027C424.802 49.6128 425.662 50.4011 425.662 51.85C425.662 53.2918 424.802 54.0162 423.041 54.0162H420.953Z" fill="white"/>
<defs>
<linearGradient id="paint0_linear" x1="426.382" y1="128.821" x2="496.42" y2="113.19" gradientUnits="userSpaceOnUse">
<stop stop-color="#00B9B5"/>
<stop offset="1" stop-color="#048085"/>
</linearGradient>
<linearGradient id="paint1_linear" x1="1396.71" y1="164.387" x2="4918.97" y2="-2209.87" gradientUnits="userSpaceOnUse">
<stop stop-color="#00B9B5"/>
<stop offset="1" stop-color="#048085"/>
</linearGradient>
<linearGradient id="paint2_linear" x1="1573.57" y1="1854.49" x2="4509.31" y2="735.233" gradientUnits="userSpaceOnUse">
<stop stop-color="#00B9B5"/>
<stop offset="1" stop-color="#048085"/>
</linearGradient>
<linearGradient id="paint3_linear" x1="2018.65" y1="1180.3" x2="6395.01" y2="72.8096" gradientUnits="userSpaceOnUse">
<stop stop-color="#00B9B5"/>
<stop offset="1" stop-color="#048085"/>
</linearGradient>
<linearGradient id="paint4_linear" x1="310.809" y1="132.071" x2="415.297" y2="84.4798" gradientUnits="userSpaceOnUse">
<stop stop-color="#00B9B5"/>
<stop offset="1" stop-color="#0B1C32"/>
</linearGradient>
<linearGradient id="paint5_linear" x1="-6499.86" y1="2850.58" x2="1408.53" y2="-1414.57" gradientUnits="userSpaceOnUse">
<stop stop-color="#00B9B5"/>
<stop offset="1" stop-color="#0B1C32"/>
</linearGradient>
<linearGradient id="paint6_linear" x1="-6694.2" y1="2045.78" x2="-1159.56" y2="-3212.52" gradientUnits="userSpaceOnUse">
<stop stop-color="#00B9B5"/>
<stop offset="1" stop-color="#0B1C32"/>
</linearGradient>
<linearGradient id="paint7_linear" x1="-7226.78" y1="2691.88" x2="1369.24" y2="-1987.67" gradientUnits="userSpaceOnUse">
<stop stop-color="#00B9B5"/>
<stop offset="1" stop-color="#0B1C32"/>
</linearGradient>
<clipPath id="clip0">
<rect x="396.5" y="85.644" width="46" height="66" rx="2" fill="white"/>
</clipPath>
</defs>
</svg>
